<?xml version="1.0" standalone="no"?>
<!DOCTYPE svg PUBLIC "-//W3C//DTD SVG 20010904//EN"
 "http://www.w3.org/TR/2001/REC-SVG-20010904/DTD/svg10.dtd">
<svg version="1.0" xmlns="http://www.w3.org/2000/svg"
 width="436.000000pt" height="247.000000pt" viewBox="0 0 436.000000 247.000000"
 preserveAspectRatio="xMidYMid meet">

<g transform="translate(0.000000,247.000000) scale(0.100000,-0.100000)"
fill="#000000" stroke="none">
<path d="M0 1235 l0 -1235 2180 0 2180 0 0 1235 0 1235 -2180 0 -2180 0 0
-1235z m1911 1125 c16 -9 19 -22 19 -90 l0 -80 -375 0 -375 0 0 80 c0 65 3 81
18 89 24 14 687 15 713 1z m77 -219 c42 -22 62 -42 88 -91 18 -32 19 -62 19
-390 l0 -355 -28 -47 c-18 -31 -44 -57 -75 -75 l-47 -28 -390 0 -390 0 -47 28
c-31 18 -57 44 -75 75 l-28 47 0 355 c0 344 1 356 21 395 24 45 45 65 89 88
26 14 85 16 428 17 371 0 400 -1 435 -19z m-1195 -15 c45 -17 73 -40 95 -81
26 -46 24 -326 -1 -373 -24 -43 -83 -70 -175 -78 l-72 -7 0 -178 0 -179 -125
0 -125 0 0 455 0 455 183 0 c127 -1 193 -5 220 -14z m1621 -28 c3 -24 13 -142
21 -263 16 -224 22 -275 24 -217 2 50 51 485 57 505 5 15 20 17 128 17 l124 0
5 -27 c3 -16 13 -137 23 -270 10 -133 19 -241 21 -239 2 1 12 92 23 202 12
109 25 226 30 259 6 33 10 63 10 68 0 4 54 7 120 7 l120 0 -5 -27 c-3 -16 -25
-210 -50 -433 -25 -223 -48 -415 -51 -428 -4 -22 -7 -22 -153 -22 l-150 0 -10
53 c-6 28 -22 124 -35 212 -26 179 -23 182 -56 -60 -11 -82 -23 -162 -26 -178
l-6 -27 -149 0 c-82 0 -149 3 -149 8 -1 4 -25 208 -53 455 l-53 447 118 0 117
0 5 -42z m1146 -53 l0 -95 -75 0 -75 0 0 -80 0 -80 70 0 70 0 0 -90 0 -90 -70
0 -70 0 0 -95 0 -95 85 0 85 0 0 -95 0 -95 -210 0 -210 0 0 455 0 455 200 0
200 0 0 -95z m485 84 c95 -26 141 -117 133 -266 -5 -95 -24 -132 -76 -147
l-31 -10 37 -21 c64 -36 72 -64 72 -272 l0 -183 -115 0 -115 0 0 195 c0 182
-1 195 -19 205 -40 21 -41 16 -41 -195 l0 -206 -122 3 -123 3 -3 453 -2 452
182 0 c101 0 201 -5 223 -11z m-2575 -1489 l0 -340 191 0 191 0 -8 -32 c-3
-18 -12 -51 -18 -73 l-12 -40 -252 -3 -252 -2 0 415 0 415 80 0 80 0 0 -340z
m1013 -68 c75 -224 137 -411 137 -415 0 -4 -39 -6 -87 -5 l-87 3 -28 93 -29
92 -154 0 -153 0 -32 -95 -32 -95 -84 0 c-84 0 -85 0 -78 23 3 12 67 199 142
415 l135 392 106 0 106 0 138 -408z m662 385 c51 -23 102 -72 121 -116 33 -80
3 -193 -64 -238 l-33 -22 28 -14 c110 -58 137 -216 55 -324 -13 -18 -49 -45
-80 -60 -56 -27 -61 -28 -264 -31 l-208 -3 0 416 0 417 203 -4 c166 -3 209 -7
242 -21z"/>
<path d="M1503 1973 c-17 -16 -33 -42 -36 -58 -6 -30 -4 -31 46 -43 29 -7 65
-12 80 -12 20 0 30 -7 37 -26 13 -33 13 -264 1 -264 -6 0 -23 12 -38 26 -52
48 -104 57 -146 24 l-26 -21 -21 21 c-30 30 -94 27 -125 -6 -45 -49 -41 -153
9 -211 22 -25 32 -28 102 -32 190 -9 246 -5 329 23 123 42 135 47 145 66 15
28 -30 153 -108 302 -67 126 -77 139 -138 187 -37 28 -70 51 -73 51 -4 0 -21
-12 -38 -27z"/>
<path d="M640 1870 c0 -99 2 -110 18 -110 34 0 42 21 42 110 0 89 -8 110 -42
110 -16 0 -18 -11 -18 -110z"/>
<path d="M3890 1885 c0 -85 2 -95 18 -95 32 0 42 22 42 95 0 73 -10 95 -42 95
-16 0 -18 -10 -18 -95z"/>
<path d="M2182 653 c-28 -87 -52 -162 -52 -166 0 -4 47 -7 105 -7 58 0 105 1
105 3 0 1 -24 75 -53 165 l-52 163 -53 -158z"/>
<path d="M2870 735 l0 -95 91 0 c87 0 92 1 120 29 21 22 29 39 29 66 0 27 -8
44 -29 66 -28 28 -33 29 -120 29 l-91 0 0 -95z"/>
<path d="M2870 400 l0 -100 98 0 c71 0 103 4 119 15 30 21 44 75 32 121 -14
48 -54 64 -164 64 l-85 0 0 -100z"/>
</g>
</svg>
